<svg width="19" height="19" viewBox="0 0 19 19" fill="none" xmlns="http://www.w3.org/2000/svg">
<path d="M8.21197 11.8236L3.10076 16.7661C2.77763 17.0759 2.36638 17.2308 1.86701 17.2308C1.36763 17.2308 0.956376 17.0759 0.633251 16.7661C0.311995 16.4563 0.151367 16.062 0.151367 15.5833C0.151367 15.1045 0.311995 14.7102 0.633251 14.4005L5.75875 9.45802L0.633251 4.57168C0.311995 4.26007 0.151367 3.86349 0.151367 3.38195C0.151367 2.90038 0.311995 2.5038 0.633251 2.19221C0.954507 1.88243 1.36338 1.72754 1.85987 1.72754C2.35635 1.72754 2.76522 1.88243 3.08648 2.19221L8.21197 7.13465L13.2793 2.19221C13.6024 1.88243 14.0137 1.72754 14.5131 1.72754C15.0125 1.72754 15.4238 1.88243 15.7469 2.19221C16.0974 2.53016 16.2726 2.93147 16.2726 3.39614C16.2726 3.86082 16.0974 4.24804 15.7469 4.55783L10.6214 9.45802L15.7469 14.3867C16.0681 14.6983 16.2288 15.0948 16.2288 15.5764C16.2288 16.0579 16.0681 16.4545 15.7469 16.7661C15.3964 17.104 14.9803 17.273 14.4984 17.273C14.0165 17.273 13.6149 17.104 13.2937 16.7661L8.21197 11.8236Z" fill="#0021F5"/>
</svg>
