<svg width="20" height="19" viewBox="0 0 20 19" fill="none" xmlns="http://www.w3.org/2000/svg">
<path d="M11.2943 18.0205C10.6196 18.0205 10.1409 17.7915 9.85814 17.3336C9.57427 16.8765 9.62122 16.4352 9.999 16.0096L16.2729 9.08301L9.999 2.15645C9.62122 1.73085 9.57427 1.28908 9.85814 0.831142C10.1409 0.374053 10.6196 0.145508 11.2943 0.145508C11.5911 0.145508 11.8609 0.203814 12.1038 0.320428C12.3467 0.437892 12.549 0.581743 12.7109 0.751981L19.5515 8.34886C19.6594 8.45525 19.7404 8.57229 19.7944 8.69997C19.8483 8.82765 19.8753 8.95533 19.8753 9.08301C19.8753 9.21069 19.8483 9.33283 19.7944 9.44944C19.7404 9.56691 19.6594 9.68948 19.5515 9.81716L12.7109 17.414C12.549 17.5843 12.3467 17.7281 12.1038 17.8456C11.8609 17.9622 11.5911 18.0205 11.2943 18.0205ZM1.6608 18.0205C0.986185 18.0205 0.50748 17.7915 0.224683 17.3336C-0.0591941 16.8765 -0.0122406 16.4352 0.365542 16.0096L6.63944 9.08301L0.365542 2.15645C-0.0122406 1.73085 -0.0591941 1.28908 0.224683 0.831142C0.50748 0.374053 0.986185 0.145508 1.6608 0.145508C1.95763 0.145508 2.22747 0.203814 2.47033 0.320428C2.71319 0.437892 2.91558 0.581743 3.07748 0.751981L9.91805 8.34886C10.026 8.45525 10.1069 8.57229 10.1609 8.69997C10.2149 8.82765 10.2419 8.95533 10.2419 9.08301C10.2419 9.21069 10.2149 9.33836 10.1609 9.46604C10.1069 9.59372 10.026 9.71076 9.91805 9.81716L3.07748 17.414C2.91558 17.5843 2.71319 17.7281 2.47033 17.8456C2.22747 17.9622 1.95763 18.0205 1.6608 18.0205Z" fill="#353479"/>
</svg>
